<svg width="344" height="439" viewBox="0 0 344 439" fill="none" xmlns="http://www.w3.org/2000/svg">
<path fill-rule="evenodd" clip-rule="evenodd" d="M-30.6234 96.1563C-8.91268 69.7377 29.2973 67.7353 60.527 53.8054C100.987 35.7583 136.69 -6.82805 180.071 2.17715C222.878 11.0632 239.954 62.4507 267.137 96.6943C295.095 131.915 333.922 161.529 341.719 205.815C349.778 251.59 332.642 298.186 309.732 338.622C287.108 378.553 256.621 418.114 213.13 432.771C171.487 446.805 126.289 430.095 85.2937 414.258C52.5836 401.622 28.5677 376.105 3.35637 351.731C-18.7187 330.39 -42.4335 309.902 -52.6122 280.935C-62.6695 252.313 -56.4364 221.893 -52.8518 191.77C-48.9052 158.606 -51.8271 121.958 -30.6234 96.1563Z" fill="url(#paint0_linear_4_736)" fill-opacity="0.5"/>
<defs>
<linearGradient id="paint0_linear_4_736" x1="-6.991" y1="71.9664" x2="293.741" y2="370.581" gradientUnits="userSpaceOnUse">
<stop stop-color="#FF61C8" stop-opacity="0.4"/>
<stop offset="1" stop-color="#FFBFC0" stop-opacity="0.6"/>
</linearGradient>
</defs>
</svg>
