<svg width="316" height="425" viewBox="0 0 316 425" fill="none" xmlns="http://www.w3.org/2000/svg">
<path fill-rule="evenodd" clip-rule="evenodd" d="M170.353 59.2884C215.074 41.569 252.25 -7.28757 299.643 0.921607C344.062 8.61557 373.288 56.052 391.054 97.5171C408.093 137.289 401.63 182.184 395.666 225.044C390.299 263.615 378.099 300.122 358.203 333.589C338.491 366.746 316.963 402.71 281.313 417.391C246.457 431.745 208.044 410.996 170.353 410.946C132.726 410.896 90.8832 437.968 59.564 417.096C27.8184 395.939 32.2495 347.832 20.9467 311.375C12.0266 282.604 -0.595827 255.163 0.0218306 225.044C0.632163 195.283 8.51987 165.875 24.4461 140.735C40.0316 116.132 63.7513 98.5059 89.1714 84.3163C114.329 70.2731 143.57 69.9008 170.353 59.2884Z" fill="url(#paint0_linear_4_737)"/>
<defs>
<linearGradient id="paint0_linear_4_737" x1="201" y1="0" x2="201" y2="425" gradientUnits="userSpaceOnUse">
<stop stop-color="#D16DEF" stop-opacity="0.5"/>
<stop offset="1" stop-color="#F6E1FF" stop-opacity="0.5"/>
</linearGradient>
</defs>
</svg>
